<?xml version="1.0" encoding="utf-8"?>
<!DOCTYPE svg PUBLIC "-//W3C//DTD SVG 20010904//EN" "http://www.w3.org/TR/2001/REC-SVG-20010904/DTD/svg10.dtd">
<svg version="1.0" xmlns="http://www.w3.org/2000/svg" width="36pt" height="72pt" viewBox="0 0 36 72" style="" preserveAspectRatio="xMidYMid meet">
<g fill="#545454FF" stroke="#545454FF">
<path d="M 14.250 4.496 C 13.351 5.516 13.000 10.848 13.000 23.458 C 13.000 40.333 12.924 41.000 11.000 41.000 C 9.139 41.000 9.000 40.333 9.000 31.429 C 9.000 24.254 8.624 21.482 7.500 20.357 C 6.167 19.024 5.833 19.024 4.500 20.357 C 3.364 21.493 3.000 24.315 3.000 31.974 C 3.000 41.382 3.172 42.263 5.455 44.545 C 6.805 45.895 9.055 47.000 10.455 47.000 L 13.000 47.000 13.000 58.000 L 13.000 69.000 18.000 69.000 L 23.000 69.000 23.000 54.000 L 23.000 39.000 25.545 39.000 C 26.945 39.000 29.195 37.895 30.545 36.545 C 32.828 34.263 33.000 33.382 33.000 23.974 C 33.000 16.315 32.636 13.493 31.500 12.357 C 30.167 11.024 29.833 11.024 28.500 12.357 C 27.376 13.482 27.000 16.254 27.000 23.429 C 27.000 32.333 26.861 33.000 25.000 33.000 C 23.098 33.000 23.000 32.333 23.000 19.429 C 23.000 9.000 22.669 5.526 21.571 4.429 C 19.757 2.614 15.876 2.649 14.250 4.496 "/></g>
</svg>
