<?xml version="1.0" encoding="utf-8"?>
<!DOCTYPE svg PUBLIC "-//W3C//DTD SVG 20010904//EN" "http://www.w3.org/TR/2001/REC-SVG-20010904/DTD/svg10.dtd">
<svg version="1.0" xmlns="http://www.w3.org/2000/svg" width="90pt" height="96pt" viewBox="0 0 90 96" style="" preserveAspectRatio="xMidYMid meet">
<g fill="#535353FF" stroke="#535353FF">
<path d="M 49.000 7.000 C 49.000 8.333 48.333 9.000 47.000 9.000 C 45.103 9.000 45.000 9.667 45.000 22.000 C 45.000 34.333 44.897 35.000 43.000 35.000 C 41.667 35.000 41.000 35.667 41.000 37.000 C 41.000 38.486 40.333 39.000 38.406 39.000 C 36.654 39.000 35.643 39.649 35.290 41.000 C 34.919 42.417 33.926 43.000 31.883 43.000 C 29.667 43.000 29.000 43.462 29.000 45.000 C 29.000 46.333 28.333 47.000 27.000 47.000 C 25.667 47.000 25.000 47.667 25.000 49.000 C 25.000 50.667 24.333 51.000 21.000 51.000 C 17.667 51.000 17.000 50.667 17.000 49.000 C 17.000 47.667 16.333 47.000 15.000 47.000 C 13.667 47.000 13.000 46.333 13.000 45.000 C 13.000 43.667 12.333 43.000 11.000 43.000 C 9.333 43.000 9.000 42.333 9.000 39.000 C 9.000 35.667 8.667 35.000 7.000 35.000 C 5.111 35.000 5.000 35.667 5.000 47.000 C 5.000 58.333 5.111 59.000 7.000 59.000 C 8.333 59.000 9.000 59.667 9.000 61.000 C 9.000 62.333 9.667 63.000 11.000 63.000 C 12.333 63.000 13.000 63.667 13.000 65.000 C 13.000 66.333 13.667 67.000 15.000 67.000 C 16.333 67.000 17.000 67.667 17.000 69.000 C 17.000 70.333 17.667 71.000 19.000 71.000 C 20.333 71.000 21.000 71.667 21.000 73.000 C 21.000 74.333 21.667 75.000 23.000 75.000 C 24.333 75.000 25.000 75.667 25.000 77.000 C 25.000 78.333 25.667 79.000 27.000 79.000 C 28.333 79.000 29.000 79.667 29.000 81.000 C 29.000 82.667 29.667 83.000 33.000 83.000 C 36.333 83.000 37.000 82.667 37.000 81.000 C 37.000 79.667 36.333 79.000 35.000 79.000 C 33.667 79.000 33.000 78.333 33.000 77.000 C 33.000 75.333 33.667 75.000 37.000 75.000 C 40.333 75.000 41.000 75.333 41.000 77.000 C 41.000 78.333 41.667 79.000 43.000 79.000 C 44.778 79.000 45.000 79.667 45.000 85.000 L 45.000 91.000 49.000 91.000 C 52.333 91.000 53.000 90.667 53.000 89.000 C 53.000 87.667 52.333 87.000 51.000 87.000 C 49.167 87.000 49.000 86.333 49.000 79.000 C 49.000 71.667 49.167 71.000 51.000 71.000 C 52.333 71.000 53.000 70.333 53.000 69.000 C 53.000 67.667 53.667 67.000 55.000 67.000 C 56.556 67.000 57.000 66.333 57.000 64.000 C 57.000 61.667 57.444 61.000 59.000 61.000 C 60.810 61.000 61.000 60.333 61.000 54.000 C 61.000 47.667 61.190 47.000 63.000 47.000 C 64.333 47.000 65.000 47.667 65.000 49.000 C 65.000 50.333 65.667 51.000 67.000 51.000 C 68.667 51.000 69.000 50.333 69.000 47.000 L 69.000 43.000 65.000 43.000 L 61.000 43.000 61.000 39.000 L 61.000 35.000 69.000 35.000 C 76.333 35.000 77.000 34.833 77.000 33.000 C 77.000 31.222 76.333 31.000 71.000 31.000 C 65.667 31.000 65.000 30.778 65.000 29.000 C 65.000 27.133 65.667 27.000 75.000 27.000 L 85.000 27.000 85.000 18.000 C 85.000 9.667 84.852 9.000 83.000 9.000 C 81.667 9.000 81.000 8.333 81.000 7.000 C 81.000 5.083 80.333 5.000 65.000 5.000 C 49.667 5.000 49.000 5.083 49.000 7.000 M 57.000 13.000 C 57.000 14.333 56.333 15.000 55.000 15.000 C 53.667 15.000 53.000 14.333 53.000 13.000 C 53.000 11.667 53.667 11.000 55.000 11.000 C 56.333 11.000 57.000 11.667 57.000 13.000 "/></g>
</svg>
