<?xml version="1.0" encoding="utf-8"?>
<!DOCTYPE svg PUBLIC "-//W3C//DTD SVG 20010904//EN" "http://www.w3.org/TR/2001/REC-SVG-20010904/DTD/svg10.dtd">
<svg version="1.0" xmlns="http://www.w3.org/2000/svg" width="298pt" height="297pt" viewBox="0 0 298 297" style="" preserveAspectRatio="xMidYMid meet">
<g fill="#000000FF" stroke="#000000FF">
<path d="M 130.000 120.000 L 130.000 174.000 124.500 174.000 L 119.000 174.000 119.000 162.000 L 119.000 150.000 113.000 150.000 L 107.000 150.000 107.000 144.000 L 107.000 138.000 101.000 138.000 L 95.000 138.000 95.000 132.000 L 95.000 126.000 82.500 126.000 L 70.000 126.000 70.000 132.000 L 70.000 138.000 64.000 138.000 L 58.000 138.000 58.000 144.000 L 58.000 150.000 52.000 150.000 L 46.000 150.000 46.000 156.000 L 46.000 162.000 40.000 162.000 L 34.000 162.000 34.000 168.000 L 34.000 174.000 28.000 174.000 L 22.000 174.000 22.000 180.500 L 22.000 187.000 58.000 187.000 L 94.000 187.000 94.000 193.000 L 94.000 199.000 106.000 199.000 L 118.000 199.000 118.000 205.000 L 118.000 211.000 130.000 211.000 L 142.000 211.000 142.000 217.000 L 142.000 223.000 184.500 223.000 L 227.000 223.000 227.000 217.000 L 227.000 211.000 245.000 211.000 L 263.000 211.000 263.000 204.500 L 263.000 198.000 251.000 198.000 L 239.000 198.000 239.000 192.500 L 239.000 187.000 257.000 187.000 L 275.000 187.000 275.000 180.500 L 275.000 174.000 251.000 174.000 L 227.000 174.000 227.000 168.000 L 227.000 162.000 221.000 162.000 L 215.000 162.000 215.000 156.000 L 215.000 150.000 209.000 150.000 L 203.000 150.000 203.000 144.000 L 203.000 138.000 197.000 138.000 L 191.000 138.000 191.000 132.000 L 191.000 126.000 185.000 126.000 L 179.000 126.000 179.000 114.000 L 179.000 102.000 173.000 102.000 L 167.000 102.000 167.000 96.000 L 167.000 90.000 161.000 90.000 L 155.000 90.000 155.000 84.000 L 155.000 78.000 149.000 78.000 L 143.000 78.000 143.000 72.000 L 143.000 66.000 136.500 66.000 L 130.000 66.000 130.000 120.000 "/></g>
</svg>
