<?xml version="1.0" encoding="UTF-8"?>
<!DOCTYPE svg PUBLIC "-//W3C//DTD SVG 1.1//EN" "http://www.w3.org/Graphics/SVG/1.1/DTD/svg11.dtd">
<svg xmlns="http://www.w3.org/2000/svg" version="1.1" width="42px" height="40px" style="shape-rendering:geometricPrecision; text-rendering:geometricPrecision; image-rendering:optimizeQuality; fill-rule:evenodd; clip-rule:evenodd" xmlns:xlink="http://www.w3.org/1999/xlink">
<g><path style="opacity:0.442" fill="#000000" d="M 18.5,-0.5 C 18.8333,-0.5 19.1667,-0.5 19.5,-0.5C 20.9418,0.819534 21.6085,2.4862 21.5,4.5C 21.5,5.16667 21.5,5.83333 21.5,6.5C 20.8333,6.5 20.5,6.83333 20.5,7.5C 19.5178,8.14083 18.5178,8.80749 17.5,9.5C 16.4291,7.67452 17.0958,6.50785 19.5,6C 15.5,5 15.5,4 19.5,3C 18.6634,1.98873 18.33,0.822066 18.5,-0.5 Z"/></g>
<g><path style="opacity:0.418" fill="#000000" d="M 23.5,8.5 C 23.5,8.16667 23.5,7.83333 23.5,7.5C 24.1667,7.5 24.5,7.16667 24.5,6.5C 24.5,5.83333 24.5,5.16667 24.5,4.5C 25.9362,2.68149 27.6029,2.34816 29.5,3.5C 28.5,4.33333 27.5,5.16667 26.5,6C 30.5,7 30.5,8 26.5,9C 27.7112,9.89277 27.7112,10.7261 26.5,11.5C 25.265,10.6602 24.265,9.66023 23.5,8.5 Z"/></g>
<g><path style="opacity:0.631" fill="#d3d3d3" d="M 24.5,4.5 C 24.5,5.16667 24.5,5.83333 24.5,6.5C 23.8333,6.5 23.5,6.83333 23.5,7.5C 23.5,7.83333 23.5,8.16667 23.5,8.5C 22.5084,8.67158 21.8417,8.33825 21.5,7.5C 21.5,7.16667 21.5,6.83333 21.5,6.5C 21.5,5.83333 21.5,5.16667 21.5,4.5C 22.6522,3.37505 23.6522,3.37505 24.5,4.5 Z"/></g>
<g><path style="opacity:0.616" fill="#000000" d="M 20.5,7.5 C 20.8333,7.5 21.1667,7.5 21.5,7.5C 21.8417,8.33825 22.5084,8.67158 23.5,8.5C 21.0043,17.815 18.5043,27.1483 16,36.5C 14.6575,37.9023 13.8242,37.5689 13.5,35.5C 16.1519,26.2258 18.4852,16.8924 20.5,7.5 Z"/></g>
<g><path style="opacity:0.712" fill="#000000" d="M -0.5,23.5 C -0.5,22.5 -0.5,21.5 -0.5,20.5C 2.96414,17.5375 6.29747,14.3709 9.5,11C 10.4835,10.4092 11.1501,10.7425 11.5,12C 8.88323,15.62 5.88323,18.9533 2.5,22C 5.33333,24.8333 8.16667,27.6667 11,30.5C 11.7494,31.635 11.5827,32.635 10.5,33.5C 6.81329,30.1446 3.14662,26.8113 -0.5,23.5 Z"/></g>
<g><path style="opacity:0.711" fill="#000000" d="M 41.5,20.5 C 41.5,21.5 41.5,22.5 41.5,23.5C 38.0359,26.4625 34.7025,29.6291 31.5,33C 30.5165,33.5908 29.8499,33.2575 29.5,32C 32.1168,28.38 35.1168,25.0467 38.5,22C 35.6667,19.1667 32.8333,16.3333 30,13.5C 29.2506,12.365 29.4173,11.365 30.5,10.5C 34.1867,13.8554 37.8534,17.1887 41.5,20.5 Z"/></g>
</svg>
